<?xml version="1.0" encoding="UTF-8" standalone="no"?><!-- Generator: Gravit.io --><svg xmlns="http://www.w3.org/2000/svg" xmlns:xlink="http://www.w3.org/1999/xlink" style="isolation:isolate" viewBox="0 0 500 500" width="500pt" height="500pt"><defs><clipPath id="_clipPath_5WDy3MQLvTCaATnWmcofbdEOd0fHgdkr"><rect width="500" height="500"/></clipPath></defs><g clip-path="url(#_clipPath_5WDy3MQLvTCaATnWmcofbdEOd0fHgdkr)"><g><path d=" M 397.553 76.921 L 397.553 85.161 L 395.647 85.161 L 395.647 81.783 L 391.903 81.783 L 391.903 85.161 L 389.997 85.161 L 389.997 76.921 L 391.903 76.921 L 391.903 80.17 L 395.647 80.17 L 395.647 76.921 L 397.553 76.921 Z " fill="rgb(246,246,245)"/><g><path d=" M 428.443 141.541 C 431.36 144.562 431.275 149.375 428.254 152.291 C 425.234 155.207 420.421 155.123 417.505 152.103 C 414.589 149.082 414.673 144.269 417.694 141.352 C 420.714 138.436 425.527 138.521 428.443 141.541 Z  M 432.221 132.102 C 430.881 131.293 429.455 130.678 427.984 130.26 L 427.111 126.067 L 420.025 125.943 L 419.005 130.103 C 417.52 130.468 416.073 131.032 414.706 131.794 L 411.125 129.446 L 406.026 134.369 L 408.246 138.03 C 407.436 139.37 406.822 140.797 406.405 142.268 L 402.211 143.14 L 402.087 150.226 L 406.247 151.246 C 406.613 152.731 407.176 154.178 407.938 155.546 L 405.591 159.127 L 410.513 164.225 L 414.174 162.006 C 415.515 162.815 416.941 163.429 418.412 163.846 L 419.285 168.041 L 426.371 168.165 L 427.391 164.004 C 428.876 163.639 430.322 163.075 431.69 162.312 L 435.271 164.661 L 440.37 159.737 L 438.15 156.077 C 438.96 154.737 439.574 153.311 439.991 151.839 L 444.185 150.966 L 444.309 143.88 L 440.149 142.861 C 439.783 141.376 439.219 139.929 438.458 138.561 L 440.805 134.98 L 435.883 129.882 L 432.221 132.102 Z " fill="rgb(239,238,237)"/><path d=" M 344.311 108.391 L 315.823 108.391 C 313.855 108.391 312.259 106.795 312.259 104.827 L 312.259 65.397 C 312.259 63.429 313.855 61.833 315.823 61.833 L 333.89 61.833 L 347.875 76.247 L 347.875 104.827 C 347.875 106.795 346.279 108.391 344.311 108.391 Z " fill="rgb(239,238,237)"/><path d=" M 343.521 108.391 L 316.613 108.391 C 314.208 108.391 312.259 106.442 312.259 104.038 L 312.259 94.265 L 347.875 94.265 L 347.875 104.038 C 347.875 106.442 345.926 108.391 343.521 108.391 Z " fill="rgb(216,217,217)"/><path d=" M 324.881 103.377 L 325.778 102.301 C 326.156 102.809 326.575 103.068 327.072 103.068 C 327.719 103.068 328.058 102.68 328.058 101.913 L 328.058 98.597 L 325.609 98.597 L 325.609 97.303 L 329.661 97.303 L 329.661 101.823 C 329.661 103.546 328.795 104.393 327.151 104.393 C 326.216 104.393 325.389 104.034 324.881 103.377 Z " fill="rgb(246,246,245)"/><path d=" M 330.625 103.775 L 331.143 102.66 C 331.621 102.969 332.347 103.178 333.005 103.178 C 333.722 103.178 333.991 102.988 333.991 102.69 C 333.991 101.814 330.755 102.71 330.755 100.569 C 330.755 99.553 331.671 98.836 333.234 98.836 C 333.971 98.836 334.787 99.005 335.295 99.304 L 334.777 100.41 C 334.25 100.111 333.722 100.011 333.234 100.011 C 332.537 100.011 332.238 100.23 332.238 100.509 C 332.238 101.425 335.474 100.539 335.474 102.65 C 335.474 103.646 334.549 104.353 332.945 104.353 C 332.039 104.353 331.123 104.104 330.625 103.775 Z " fill="rgb(246,246,245)"/><path d=" M 319.805 86.849 L 320.922 85.54 C 321.653 86.58 322.597 87.138 323.733 87.138 C 325.254 87.138 326.044 86.214 326.044 84.404 L 326.044 76.837 L 321.173 76.837 L 321.173 75.162 L 327.95 75.162 L 327.95 84.308 C 327.95 87.312 326.486 88.794 323.733 88.794 C 322.135 88.794 320.672 88.101 319.805 86.849 Z " fill="rgb(246,246,245)"/><path d=" M 330.32 87.562 L 331.09 86.098 C 331.957 86.715 333.343 87.157 334.672 87.157 C 336.385 87.157 337.098 86.638 337.098 85.771 C 337.098 83.48 330.647 85.463 330.647 81.4 C 330.647 79.571 332.284 78.339 334.902 78.339 C 336.231 78.339 337.733 78.686 338.618 79.263 L 337.829 80.726 C 336.905 80.13 335.885 79.918 334.883 79.918 C 333.266 79.918 332.476 80.515 332.476 81.323 C 332.476 83.73 338.946 81.766 338.946 85.733 C 338.946 87.581 337.252 88.756 334.537 88.756 C 332.843 88.756 331.167 88.236 330.32 87.562 Z " fill="rgb(246,246,245)"/><path d=" M 333.89 61.833 L 333.89 72.93 C 333.89 74.761 335.374 76.245 337.204 76.245 L 347.875 76.247 L 333.89 61.833 Z " fill="rgb(229,229,228)"/><path d=" M 334.035 73.904 C 334.035 73.904 333.895 76.595 336.959 77.48 C 337.075 77.513 337.192 77.538 337.31 77.559 C 338.703 77.808 347.875 79.439 347.875 79.229 C 347.875 79.001 347.875 76.247 347.875 76.247 L 337.204 76.247 C 337.204 76.247 334.541 76.156 334.035 73.904 Z " fill="rgb(216,217,217)"/><path d=" M 265.738 107.752 L 217.435 107.752 C 214.097 107.752 211.391 105.046 211.391 101.708 L 211.391 34.849 C 211.391 31.511 214.097 28.805 217.435 28.805 L 248.069 28.805 L 271.782 53.246 L 271.782 101.708 C 271.782 105.046 269.076 107.752 265.738 107.752 Z " fill="rgb(252,28,91)"/><path d=" M 265.556 107.752 L 217.618 107.752 C 214.178 107.752 211.391 104.964 211.391 101.525 L 211.391 84.989 C 211.391 84.331 211.923 83.798 212.582 83.798 L 270.591 83.798 C 271.25 83.798 271.782 84.331 271.782 84.989 L 271.782 101.525 C 271.782 104.964 268.995 107.752 265.556 107.752 Z " fill="rgb(162,22,83)"/><path d=" M 271.782 53.246 L 253.69 53.243 C 253.67 53.243 253.651 53.243 253.632 53.243 C 253.347 53.225 252.063 53.109 250.812 52.451 C 249.631 51.746 248.731 50.619 248.317 49.279 C 248.316 49.277 248.316 49.275 248.315 49.273 C 248.315 49.273 248.315 49.273 248.315 49.274 C 248.155 48.752 248.069 48.197 248.069 47.622 L 248.069 28.805 L 271.782 53.246 Z " fill="rgb(255,207,207)"/><path d=" M 271.619 58.334 C 269.951 58.334 256.088 55.868 253.868 55.471 C 253.668 55.435 253.468 55.393 253.273 55.337 C 248.131 53.852 248.312 49.366 248.315 49.274 C 248.316 49.276 248.316 49.277 248.317 49.279 C 248.688 50.923 249.738 51.887 250.812 52.451 C 251.638 52.945 252.601 53.232 253.632 53.243 C 253.669 53.245 253.69 53.246 253.69 53.246 L 271.782 53.246 L 271.782 58.302 C 271.782 58.324 271.725 58.334 271.619 58.334 Z " fill="rgb(162,22,83)"/><path d=" M 253.632 53.243 C 252.601 53.232 251.638 52.945 250.812 52.451 C 252.063 53.109 253.347 53.225 253.632 53.243 Z  M 248.317 49.279 C 248.316 49.277 248.316 49.276 248.315 49.274 C 248.315 49.273 248.315 49.273 248.315 49.273 C 248.316 49.275 248.316 49.277 248.317 49.279 Z " fill="rgb(231,124,111)"/><path d=" M 228.678 94.235 C 228.678 91.403 230.853 89.378 233.777 89.378 C 235.401 89.378 236.756 89.968 237.641 91.042 L 236.247 92.33 C 235.616 91.605 234.824 91.229 233.885 91.229 C 232.128 91.229 230.879 92.464 230.879 94.235 C 230.879 96.006 232.128 97.24 233.885 97.24 C 234.824 97.24 235.616 96.864 236.247 96.126 L 237.641 97.414 C 236.756 98.502 235.401 99.092 233.764 99.092 C 230.853 99.092 228.678 97.066 228.678 94.235 Z " fill="rgb(246,246,245)"/><path d=" M 238.281 98.005 L 239.019 96.368 C 239.811 96.945 240.991 97.348 242.119 97.348 C 243.407 97.348 243.929 96.918 243.929 96.342 C 243.929 94.584 238.469 95.792 238.469 92.303 C 238.469 90.706 239.757 89.378 242.427 89.378 C 243.608 89.378 244.815 89.659 245.688 90.21 L 245.017 91.86 C 244.145 91.363 243.245 91.122 242.414 91.122 C 241.126 91.122 240.629 91.605 240.629 92.195 C 240.629 93.926 246.089 92.732 246.089 96.181 C 246.089 97.75 244.788 99.092 242.105 99.092 C 240.616 99.092 239.112 98.649 238.281 98.005 Z " fill="rgb(246,246,245)"/><path d=" M 246.837 98.005 L 247.574 96.368 C 248.366 96.945 249.548 97.348 250.675 97.348 C 251.963 97.348 252.486 96.918 252.486 96.342 C 252.486 94.584 247.025 95.792 247.025 92.303 C 247.025 90.706 248.314 89.378 250.983 89.378 C 252.164 89.378 253.372 89.659 254.244 90.21 L 253.573 91.86 C 252.7 91.363 251.802 91.122 250.969 91.122 C 249.681 91.122 249.185 91.605 249.185 92.195 C 249.185 93.926 254.647 92.732 254.647 96.181 C 254.647 97.75 253.345 99.092 250.662 99.092 C 249.172 99.092 247.67 98.649 246.837 98.005 Z " fill="rgb(246,246,245)"/><path d=" M 231.746 63.837 C 232.738 64.14 233.192 64.765 233.192 66.254 L 233.192 69.706 C 233.192 70.72 233.71 71.303 234.767 71.303 L 235.156 71.303 L 235.156 73.935 L 233.904 73.935 C 231.207 73.935 229.826 72.554 229.826 70.073 L 229.826 66.168 C 229.826 65.478 229.46 65.153 228.877 65.153 L 228.165 65.153 L 228.165 62.521 L 228.877 62.521 C 229.46 62.521 229.826 62.197 229.826 61.507 L 229.826 57.601 C 229.826 55.12 231.207 53.739 233.904 53.739 L 235.156 53.739 L 235.156 56.372 L 234.767 56.372 C 233.71 56.372 233.192 56.954 233.192 57.969 L 233.192 61.421 C 233.192 62.91 232.738 63.535 231.746 63.837 Z " fill="rgb(246,246,245)"/><path d=" M 255.008 62.521 L 255.008 65.153 L 254.296 65.153 C 253.714 65.153 253.347 65.478 253.347 66.168 L 253.347 70.073 C 253.347 72.554 251.966 73.935 249.268 73.935 L 248.017 73.935 L 248.017 71.303 L 248.406 71.303 C 249.462 71.303 249.981 70.72 249.981 69.706 L 249.981 66.254 C 249.981 64.765 250.434 64.14 251.427 63.837 C 250.434 63.535 249.981 62.91 249.981 61.421 L 249.981 57.969 C 249.981 56.954 249.462 56.372 248.406 56.372 L 248.017 56.372 L 248.017 53.739 L 249.268 53.739 C 251.966 53.739 253.347 55.12 253.347 57.601 L 253.347 61.507 C 253.347 62.197 253.714 62.521 254.296 62.521 L 255.008 62.521 Z " fill="rgb(246,246,245)"/><path d=" M 186.658 161.766 L 137.623 161.766 C 134.235 161.766 131.488 159.019 131.488 155.631 L 131.488 87.761 C 131.488 84.373 134.235 81.626 137.623 81.626 L 168.721 81.626 L 192.793 106.436 L 192.793 155.631 C 192.793 159.019 190.046 161.766 186.658 161.766 Z " fill="rgb(252,28,91)"/><path d=" M 186.164 161.766 L 138.117 161.766 C 134.456 161.766 131.488 158.798 131.488 155.137 L 131.488 137.45 L 192.793 137.45 L 192.793 155.137 C 192.793 158.798 189.825 161.766 186.164 161.766 Z " fill="rgb(162,22,83)"/><path d=" M 192.793 106.436 L 174.427 106.433 C 174.406 106.433 174.386 106.433 174.367 106.433 C 174.076 106.414 172.774 106.296 171.506 105.63 C 170.307 104.914 169.393 103.771 168.974 102.41 C 168.973 102.408 168.972 102.406 168.972 102.403 C 168.972 102.403 168.972 102.404 168.972 102.405 C 168.808 101.874 168.721 101.311 168.721 100.727 L 168.721 81.626 L 192.793 106.436 Z " fill="rgb(255,207,207)"/><path d=" M 192.627 111.602 C 190.936 111.602 176.861 109.098 174.608 108.695 C 174.405 108.659 174.202 108.616 174.005 108.559 C 168.786 107.052 168.967 102.501 168.972 102.405 C 168.972 102.406 168.973 102.408 168.974 102.41 C 169.349 104.079 170.415 105.057 171.506 105.63 C 172.345 106.131 173.322 106.422 174.367 106.433 C 174.405 106.436 174.427 106.436 174.427 106.436 L 192.793 106.436 L 192.793 111.569 C 192.793 111.591 192.735 111.602 192.627 111.602 Z " fill="rgb(162,22,83)"/><path d=" M 174.367 106.433 C 173.322 106.422 172.345 106.131 171.506 105.63 C 172.774 106.296 174.076 106.414 174.367 106.433 Z  M 168.974 102.41 C 168.973 102.408 168.972 102.406 168.972 102.405 C 168.972 102.404 168.972 102.403 168.972 102.403 C 168.972 102.406 168.973 102.408 168.974 102.41 Z " fill="rgb(231,124,111)"/><path d=" M 156.665 117.37 L 149.306 120.067 L 156.665 122.74 L 156.665 125.503 L 146.145 121.503 L 146.145 118.63 L 156.665 114.63 L 156.665 117.37 Z " fill="rgb(246,246,245)"/><path d=" M 164.573 109.194 L 167.645 109.194 L 160.352 130.012 L 157.28 130.012 L 164.573 109.194 Z " fill="rgb(246,246,245)"/><path d=" M 178.56 118.63 L 178.56 121.503 L 168.04 125.503 L 168.04 122.74 L 175.399 120.067 L 168.04 117.37 L 168.04 114.63 L 178.56 118.63 Z " fill="rgb(246,246,245)"/><path d=" M 157.821 148.053 L 155.184 148.053 L 155.184 146.498 L 162.364 146.498 L 162.364 148.053 L 159.728 148.053 L 159.728 154.738 L 157.821 154.738 L 157.821 148.053 Z " fill="rgb(246,246,245)"/><path d=" M 170.885 154.738 L 170.873 149.794 L 168.448 153.867 L 167.589 153.867 L 165.176 149.9 L 165.176 154.738 L 163.387 154.738 L 163.387 146.498 L 164.964 146.498 L 168.048 151.619 L 171.084 146.498 L 172.65 146.498 L 172.674 154.738 L 170.885 154.738 Z " fill="rgb(246,246,245)"/><path d=" M 174.626 146.498 L 176.533 146.498 L 176.533 153.184 L 180.664 153.184 L 180.664 154.738 L 174.626 154.738 L 174.626 146.498 Z " fill="rgb(246,246,245)"/><path d=" M 322.454 254.287 L 411.481 254.287 C 413.104 254.287 414.42 252.971 414.42 251.348 L 414.42 104.251 C 414.42 102.628 413.104 101.312 411.481 101.312 L 322.454 101.312 C 320.83 101.312 319.514 102.628 319.514 104.251 L 319.514 251.348 C 319.514 252.971 320.83 254.287 322.454 254.287 Z " fill="rgb(164,107,132)"/><path d=" M 319.514 118.405 L 414.42 118.405 L 414.42 104.779 C 414.42 102.864 412.868 101.312 410.953 101.312 L 322.851 101.312 C 321.008 101.312 319.514 102.806 319.514 104.649 L 319.514 118.405 Z " fill="rgb(162,22,83)"/><path d=" M 400.432 111.191 C 400.432 112.737 401.685 113.991 403.231 113.991 C 404.778 113.991 406.031 112.737 406.031 111.191 C 406.031 109.645 404.778 108.391 403.231 108.391 C 401.685 108.391 400.432 109.645 400.432 111.191 Z " fill="rgb(254,254,254)"/><path d=" M 391.817 111.191 C 391.817 112.737 393.07 113.991 394.617 113.991 C 396.163 113.991 397.416 112.737 397.416 111.191 C 397.416 109.645 396.163 108.391 394.617 108.391 C 393.07 108.391 391.817 109.645 391.817 111.191 Z " fill="rgb(254,254,254)"/><path d=" M 383.202 111.191 C 383.202 112.737 384.455 113.991 386.002 113.991 C 387.548 113.991 388.802 112.737 388.802 111.191 C 388.802 109.645 387.548 108.391 386.002 108.391 C 384.455 108.391 383.202 109.645 383.202 111.191 Z " fill="rgb(254,254,254)"/><path d=" M 354.361 141.582 L 336.884 141.582 C 335.836 141.582 334.987 140.733 334.987 139.685 C 334.987 138.639 335.836 137.789 336.884 137.789 L 354.361 137.789 C 355.409 137.789 356.258 138.639 356.258 139.685 C 356.258 140.733 355.409 141.582 354.361 141.582 Z " fill="rgb(162,22,83)"/><path d=" M 354.361 151.508 L 336.884 151.508 C 335.836 151.508 334.987 150.659 334.987 149.612 C 334.987 148.565 335.836 147.715 336.884 147.715 L 354.361 147.715 C 355.409 147.715 356.258 148.565 356.258 149.612 C 356.258 150.659 355.409 151.508 354.361 151.508 Z " fill="rgb(255,207,207)"/><path d=" M 354.861 178.698 L 337.384 178.698 C 336.336 178.698 335.487 177.849 335.487 176.801 C 335.487 175.754 336.336 174.906 337.384 174.906 L 354.861 174.906 C 355.909 174.906 356.758 175.754 356.758 176.801 C 356.758 177.849 355.909 178.698 354.861 178.698 Z " fill="rgb(255,207,207)"/><path d=" M 354.361 161.766 L 336.884 161.766 C 335.836 161.766 334.987 160.917 334.987 159.87 C 334.987 158.823 335.836 157.973 336.884 157.973 L 354.361 157.973 C 355.409 157.973 356.258 158.823 356.258 159.87 C 356.258 160.917 355.409 161.766 354.361 161.766 Z " fill="rgb(252,28,91)"/><path d=" M 354.361 218.969 L 336.884 218.969 C 335.836 218.969 334.987 218.12 334.987 217.072 C 334.987 216.026 335.836 215.176 336.884 215.176 L 354.361 215.176 C 355.409 215.176 356.258 216.026 356.258 217.072 C 356.258 218.12 355.409 218.969 354.361 218.969 Z " fill="rgb(252,28,91)"/><path d=" M 382.362 141.582 L 364.884 141.582 C 363.837 141.582 362.988 140.733 362.988 139.685 C 362.988 138.639 363.837 137.789 364.884 137.789 L 382.362 137.789 C 383.41 137.789 384.258 138.639 384.258 139.685 C 384.258 140.733 383.41 141.582 382.362 141.582 Z " fill="rgb(202,30,105)"/><path d=" M 401.288 151.508 L 364.722 151.508 C 363.764 151.508 362.988 150.659 362.988 149.612 C 362.988 148.565 363.764 147.715 364.722 147.715 L 401.288 147.715 C 402.245 147.715 403.021 148.565 403.021 149.612 C 403.021 150.659 402.245 151.508 401.288 151.508 Z " fill="rgb(162,22,83)"/><path d=" M 400.304 161.766 L 363.485 161.766 C 362.501 161.766 361.703 160.917 361.703 159.87 C 361.703 158.823 362.501 157.973 363.485 157.973 L 400.304 157.973 C 401.289 157.973 402.087 158.823 402.087 159.87 C 402.087 160.917 401.289 161.766 400.304 161.766 Z " fill="rgb(255,207,207)"/><path d=" M 373.707 170.061 L 336.888 170.061 C 335.904 170.061 335.106 169.212 335.106 168.165 C 335.106 167.118 335.904 166.269 336.888 166.269 L 373.707 166.269 C 374.691 166.269 375.489 167.118 375.489 168.165 C 375.489 169.212 374.691 170.061 373.707 170.061 Z " fill="rgb(255,207,207)"/><path d=" M 328.316 139.685 C 328.316 140.749 327.454 141.612 326.39 141.612 C 325.326 141.612 324.464 140.749 324.464 139.685 C 324.464 138.621 325.326 137.759 326.39 137.759 C 327.454 137.759 328.316 138.621 328.316 139.685 Z " fill="rgb(202,30,105)"/><path d=" M 328.316 130.187 C 328.316 131.251 327.454 132.113 326.39 132.113 C 325.326 132.113 324.464 131.251 324.464 130.187 C 324.464 129.123 325.326 128.26 326.39 128.26 C 327.454 128.26 328.316 129.123 328.316 130.187 Z " fill="rgb(202,30,105)"/><path d=" M 328.316 149.582 C 328.316 150.646 327.454 151.508 326.39 151.508 C 325.326 151.508 324.464 150.646 324.464 149.582 C 324.464 148.518 325.326 147.656 326.39 147.656 C 327.454 147.656 328.316 148.518 328.316 149.582 Z " fill="rgb(202,30,105)"/><path d=" M 328.316 159.87 C 328.316 160.934 327.454 161.796 326.39 161.796 C 325.326 161.796 324.464 160.934 324.464 159.87 C 324.464 158.805 325.326 157.943 326.39 157.943 C 327.454 157.943 328.316 158.805 328.316 159.87 Z " fill="rgb(202,30,105)"/><path d=" M 354.861 206.458 L 337.384 206.458 C 336.336 206.458 335.487 205.609 335.487 204.562 C 335.487 203.515 336.336 202.666 337.384 202.666 L 354.861 202.666 C 355.909 202.666 356.758 203.515 356.758 204.562 C 356.758 205.609 355.909 206.458 354.861 206.458 Z " fill="rgb(255,207,207)"/><path d=" M 354.361 189.526 L 336.884 189.526 C 335.836 189.526 334.987 188.678 334.987 187.631 C 334.987 186.583 335.836 185.734 336.884 185.734 L 354.361 185.734 C 355.409 185.734 356.258 186.583 356.258 187.631 C 356.258 188.678 355.409 189.526 354.361 189.526 Z " fill="rgb(252,28,91)"/><path d=" M 400.304 189.526 L 363.485 189.526 C 362.501 189.526 361.703 188.678 361.703 187.631 C 361.703 186.583 362.501 185.734 363.485 185.734 L 400.304 185.734 C 401.289 185.734 402.087 186.583 402.087 187.631 C 402.087 188.678 401.289 189.526 400.304 189.526 Z " fill="rgb(255,207,207)"/><path d=" M 373.707 197.823 L 336.888 197.823 C 335.904 197.823 335.106 196.973 335.106 195.926 C 335.106 194.878 335.904 194.03 336.888 194.03 L 373.707 194.03 C 374.691 194.03 375.489 194.878 375.489 195.926 C 375.489 196.973 374.691 197.823 373.707 197.823 Z " fill="rgb(255,207,207)"/><path d=" M 328.316 187.631 C 328.316 188.694 327.454 189.557 326.39 189.557 C 325.326 189.557 324.464 188.694 324.464 187.631 C 324.464 186.567 325.326 185.705 326.39 185.705 C 327.454 185.705 328.316 186.567 328.316 187.631 Z " fill="rgb(202,30,105)"/><path d=" M 346.954 132.477 L 336.012 132.477 C 335.503 132.477 335.091 132.065 335.091 131.555 L 335.091 129.74 C 335.091 129.231 335.503 128.819 336.012 128.819 L 346.954 128.819 C 347.462 128.819 347.875 129.231 347.875 129.74 L 347.875 131.555 C 347.875 132.065 347.462 132.477 346.954 132.477 Z " fill="rgb(202,30,105)"/><path d=" M 354.361 229.077 L 336.884 229.077 C 335.836 229.077 334.987 228.227 334.987 227.18 C 334.987 226.133 335.836 225.284 336.884 225.284 L 354.361 225.284 C 355.409 225.284 356.258 226.133 356.258 227.18 C 356.258 228.227 355.409 229.077 354.361 229.077 Z " fill="rgb(162,22,83)"/><path d=" M 382.362 229.077 L 364.884 229.077 C 363.837 229.077 362.988 228.227 362.988 227.18 C 362.988 226.133 363.837 225.284 364.884 225.284 L 382.362 225.284 C 383.41 225.284 384.258 226.133 384.258 227.18 C 384.258 228.227 383.41 229.077 382.362 229.077 Z " fill="rgb(202,30,105)"/><path d=" M 328.316 227.18 C 328.316 228.244 327.454 229.107 326.39 229.107 C 325.326 229.107 324.464 228.244 324.464 227.18 C 324.464 226.116 325.326 225.254 326.39 225.254 C 327.454 225.254 328.316 226.116 328.316 227.18 Z " fill="rgb(202,30,105)"/><path d=" M 328.316 236.315 C 328.316 237.379 327.454 238.241 326.39 238.241 C 325.326 238.241 324.464 237.379 324.464 236.315 C 324.464 235.252 325.326 234.388 326.39 234.388 C 327.454 234.388 328.316 235.252 328.316 236.315 Z " fill="rgb(202,30,105)"/><path d=" M 346.954 238.605 L 336.012 238.605 C 335.503 238.605 335.091 238.193 335.091 237.684 L 335.091 235.869 C 335.091 235.359 335.503 234.947 336.012 234.947 L 346.954 234.947 C 347.462 234.947 347.875 235.359 347.875 235.869 L 347.875 237.684 C 347.875 238.193 347.462 238.605 346.954 238.605 Z " fill="rgb(202,30,105)"/><path d=" M 175.113 192.411 L 305.476 192.411 C 307.158 192.411 308.522 191.047 308.522 189.365 L 308.522 122.902 C 308.522 121.219 307.158 119.856 305.476 119.856 L 174.517 119.856 C 172.834 119.856 171.471 121.219 171.471 122.902 L 171.471 188.769 C 171.471 190.781 173.101 192.411 175.113 192.411 Z " fill="rgb(164,107,132)"/><path d=" M 171.471 135.436 L 308.522 135.436 L 308.522 123.193 C 308.522 121.35 307.027 119.856 305.183 119.856 L 174.809 119.856 C 172.965 119.856 171.471 121.35 171.471 123.193 L 171.471 135.436 Z " fill="rgb(162,22,83)"/><path d=" M 295.769 128.861 C 295.769 130.271 296.912 131.413 298.322 131.413 C 299.731 131.413 300.874 130.271 300.874 128.861 C 300.874 127.451 299.731 126.309 298.322 126.309 C 296.912 126.309 295.769 127.451 295.769 128.861 Z " fill="rgb(254,254,254)"/><path d=" M 287.917 128.861 C 287.917 130.271 289.059 131.413 290.469 131.413 C 291.878 131.413 293.021 130.271 293.021 128.861 C 293.021 127.451 291.878 126.309 290.469 126.309 C 289.059 126.309 287.917 127.451 287.917 128.861 Z " fill="rgb(254,254,254)"/><path d=" M 280.064 128.861 C 280.064 130.271 281.207 131.413 282.616 131.413 C 284.026 131.413 285.168 130.271 285.168 128.861 C 285.168 127.451 284.026 126.309 282.616 126.309 C 281.207 126.309 280.064 127.451 280.064 128.861 Z " fill="rgb(254,254,254)"/><path d=" M 210.453 157.393 L 194.521 157.393 C 193.567 157.393 192.793 156.619 192.793 155.665 C 192.793 154.71 193.567 153.936 194.521 153.936 L 210.453 153.936 C 211.408 153.936 212.182 154.71 212.182 155.665 C 212.182 156.619 211.408 157.393 210.453 157.393 Z " fill="rgb(162,22,83)"/><path d=" M 210.453 166.442 L 194.521 166.442 C 193.567 166.442 192.793 165.668 192.793 164.713 C 192.793 163.758 193.567 162.984 194.521 162.984 L 210.453 162.984 C 211.408 162.984 212.182 163.758 212.182 164.713 C 212.182 165.668 211.408 166.442 210.453 166.442 Z " fill="rgb(255,207,207)"/><path d=" M 294.555 157.393 L 248.345 157.393 C 247.39 157.393 246.616 156.619 246.616 155.665 C 246.616 154.71 247.39 153.936 248.345 153.936 L 294.555 153.936 C 295.51 153.936 296.284 154.71 296.284 155.665 C 296.284 156.619 295.51 157.393 294.555 157.393 Z " fill="rgb(255,207,207)"/><path d=" M 210.453 175.792 L 194.521 175.792 C 193.567 175.792 192.793 175.018 192.793 174.064 C 192.793 173.109 193.567 172.335 194.521 172.335 L 210.453 172.335 C 211.408 172.335 212.182 173.109 212.182 174.064 C 212.182 175.018 211.408 175.792 210.453 175.792 Z " fill="rgb(252,28,91)"/><path d=" M 283.531 166.442 L 267.6 166.442 C 266.645 166.442 265.871 165.668 265.871 164.713 C 265.871 163.759 266.645 162.984 267.6 162.984 L 283.531 162.984 C 284.486 162.984 285.261 163.759 285.261 164.713 C 285.261 165.668 284.486 166.442 283.531 166.442 Z " fill="rgb(252,28,91)"/><path d=" M 235.977 157.393 L 220.045 157.393 C 219.091 157.393 218.317 156.619 218.317 155.665 C 218.317 154.71 219.091 153.936 220.045 153.936 L 235.977 153.936 C 236.932 153.936 237.706 154.71 237.706 155.665 C 237.706 156.619 236.932 157.393 235.977 157.393 Z " fill="rgb(169,83,120)"/><path d=" M 256.505 166.442 L 220.045 166.442 C 219.091 166.442 218.317 165.668 218.317 164.713 C 218.317 163.758 219.091 162.984 220.045 162.984 L 256.505 162.984 C 257.46 162.984 258.234 163.758 258.234 164.713 C 258.234 165.668 257.46 166.442 256.505 166.442 Z " fill="rgb(162,22,83)"/><path d=" M 292.268 175.792 L 219.967 175.792 C 219.056 175.792 218.317 175.018 218.317 174.064 C 218.317 173.109 219.056 172.335 219.967 172.335 L 292.268 172.335 C 293.179 172.335 293.918 173.109 293.918 174.064 C 293.918 175.018 293.179 175.792 292.268 175.792 Z " fill="rgb(255,207,207)"/><path d=" M 255.746 182.378 L 220.045 182.378 C 219.091 182.378 218.317 181.604 218.317 180.65 C 218.317 179.696 219.091 178.922 220.045 178.922 L 255.746 178.922 C 256.7 178.922 257.474 179.696 257.474 180.65 C 257.474 181.604 256.7 182.378 255.746 182.378 Z " fill="rgb(255,207,207)"/><path d=" M 186.712 155.665 C 186.712 156.634 185.925 157.421 184.956 157.421 C 183.987 157.421 183.2 156.634 183.2 155.665 C 183.2 154.695 183.987 153.908 184.956 153.908 C 185.925 153.908 186.712 154.695 186.712 155.665 Z " fill="rgb(202,30,105)"/><path d=" M 186.712 147.006 C 186.712 147.976 185.925 148.762 184.956 148.762 C 183.987 148.762 183.2 147.976 183.2 147.006 C 183.2 146.036 183.987 145.25 184.956 145.25 C 185.925 145.25 186.712 146.036 186.712 147.006 Z " fill="rgb(202,30,105)"/><path d=" M 186.712 164.685 C 186.712 165.655 185.925 166.442 184.956 166.442 C 183.987 166.442 183.2 165.655 183.2 164.685 C 183.2 163.716 183.987 162.93 184.956 162.93 C 185.925 162.93 186.712 163.716 186.712 164.685 Z " fill="rgb(202,30,105)"/><path d=" M 186.712 174.064 C 186.712 175.034 185.925 175.82 184.956 175.82 C 183.987 175.82 183.2 175.034 183.2 174.064 C 183.2 173.094 183.987 172.308 184.956 172.308 C 185.925 172.308 186.712 173.094 186.712 174.064 Z " fill="rgb(202,30,105)"/><path d=" M 203.887 148.264 L 194.076 148.264 C 193.568 148.264 193.156 147.851 193.156 147.342 L 193.156 145.851 C 193.156 145.341 193.568 144.929 194.076 144.929 L 203.887 144.929 C 204.396 144.929 204.808 145.341 204.808 145.851 L 204.808 147.342 C 204.808 147.851 204.396 148.264 203.887 148.264 Z " fill="rgb(202,30,105)"/><path d=" M 146.508 312 L 276.87 312 C 278.552 312 279.916 310.016 279.916 307.569 L 279.916 210.889 C 279.916 208.442 278.552 206.458 276.87 206.458 L 145.912 206.458 C 144.229 206.458 142.866 208.442 142.866 210.889 L 142.866 306.702 C 142.866 309.628 144.496 312 146.508 312 Z " fill="rgb(164,107,132)"/><path d=" M 142.866 222.038 L 279.916 222.038 L 279.916 209.796 C 279.916 207.953 278.422 206.458 276.578 206.458 L 146.204 206.458 C 144.359 206.458 142.866 207.953 142.866 209.796 L 142.866 222.038 Z " fill="rgb(162,22,83)"/><path d=" M 267.164 215.463 C 267.164 216.873 268.307 218.015 269.717 218.015 C 271.126 218.015 272.269 216.873 272.269 215.463 C 272.269 214.054 271.126 212.911 269.717 212.911 C 268.307 212.911 267.164 214.054 267.164 215.463 Z " fill="rgb(254,254,254)"/><path d=" M 259.312 215.463 C 259.312 216.873 260.454 218.015 261.864 218.015 C 263.273 218.015 264.416 216.873 264.416 215.463 C 264.416 214.054 263.273 212.911 261.864 212.911 C 260.454 212.911 259.312 214.054 259.312 215.463 Z " fill="rgb(254,254,254)"/><path d=" M 251.459 215.463 C 251.459 216.873 252.602 218.015 254.011 218.015 C 255.421 218.015 256.563 216.873 256.563 215.463 C 256.563 214.054 255.421 212.911 254.011 212.911 C 252.602 212.911 251.459 214.054 251.459 215.463 Z " fill="rgb(254,254,254)"/><path d=" M 181.848 243.995 L 165.916 243.995 C 164.962 243.995 164.188 243.221 164.188 242.267 C 164.188 241.312 164.962 240.539 165.916 240.539 L 181.848 240.539 C 182.802 240.539 183.576 241.312 183.576 242.267 C 183.576 243.221 182.802 243.995 181.848 243.995 Z " fill="rgb(162,22,83)"/><path d=" M 181.848 253.044 L 165.916 253.044 C 164.962 253.044 164.188 252.27 164.188 251.316 C 164.188 250.36 164.962 249.586 165.916 249.586 L 181.848 249.586 C 182.802 249.586 183.576 250.36 183.576 251.316 C 183.576 252.27 182.802 253.044 181.848 253.044 Z " fill="rgb(255,207,207)"/><path d=" M 265.95 243.995 L 219.739 243.995 C 218.785 243.995 218.01 243.221 218.01 242.267 C 218.01 241.312 218.785 240.539 219.739 240.539 L 265.95 240.539 C 266.905 240.539 267.678 241.312 267.678 242.267 C 267.678 243.221 266.905 243.995 265.95 243.995 Z " fill="rgb(255,207,207)"/><path d=" M 181.848 262.394 L 165.916 262.394 C 164.962 262.394 164.188 261.621 164.188 260.666 C 164.188 259.712 164.962 258.937 165.916 258.937 L 181.848 258.937 C 182.802 258.937 183.576 259.712 183.576 260.666 C 183.576 261.621 182.802 262.394 181.848 262.394 Z " fill="rgb(252,28,91)"/><path d=" M 254.926 253.044 L 238.994 253.044 C 238.04 253.044 237.266 252.27 237.266 251.316 C 237.266 250.361 238.04 249.586 238.994 249.586 L 254.926 249.586 C 255.881 249.586 256.655 250.361 256.655 251.316 C 256.655 252.27 255.881 253.044 254.926 253.044 Z " fill="rgb(252,28,91)"/><path d=" M 207.372 243.995 L 191.44 243.995 C 190.485 243.995 189.712 243.221 189.712 242.267 C 189.712 241.312 190.485 240.539 191.44 240.539 L 207.372 240.539 C 208.327 240.539 209.101 241.312 209.101 242.267 C 209.101 243.221 208.327 243.995 207.372 243.995 Z " fill="rgb(202,30,105)"/><path d=" M 227.9 253.044 L 191.44 253.044 C 190.485 253.044 189.712 252.27 189.712 251.316 C 189.712 250.36 190.485 249.586 191.44 249.586 L 227.9 249.586 C 228.854 249.586 229.628 250.36 229.628 251.316 C 229.628 252.27 228.854 253.044 227.9 253.044 Z " fill="rgb(162,22,83)"/><path d=" M 263.662 262.394 L 191.362 262.394 C 190.451 262.394 189.712 261.621 189.712 260.666 C 189.712 259.712 190.451 258.937 191.362 258.937 L 263.662 258.937 C 264.574 258.937 265.313 259.712 265.313 260.666 C 265.313 261.621 264.574 262.394 263.662 262.394 Z " fill="rgb(255,207,207)"/><path d=" M 227.141 268.981 L 191.44 268.981 C 190.485 268.981 189.712 268.207 189.712 267.252 C 189.712 266.298 190.485 265.524 191.44 265.524 L 227.141 265.524 C 228.095 265.524 228.869 266.298 228.869 267.252 C 228.869 268.207 228.095 268.981 227.141 268.981 Z " fill="rgb(255,207,207)"/><path d=" M 158.106 242.267 C 158.106 243.237 157.32 244.023 156.35 244.023 C 155.381 244.023 154.595 243.237 154.595 242.267 C 154.595 241.297 155.381 240.511 156.35 240.511 C 157.32 240.511 158.106 241.297 158.106 242.267 Z " fill="rgb(202,30,105)"/><path d=" M 158.106 233.608 C 158.106 234.578 157.32 235.365 156.35 235.365 C 155.381 235.365 154.595 234.578 154.595 233.608 C 154.595 232.639 155.381 231.852 156.35 231.852 C 157.32 231.852 158.106 232.639 158.106 233.608 Z " fill="rgb(202,30,105)"/><path d=" M 158.106 251.288 C 158.106 252.258 157.32 253.044 156.35 253.044 C 155.381 253.044 154.595 252.258 154.595 251.288 C 154.595 250.318 155.381 249.533 156.35 249.533 C 157.32 249.533 158.106 250.318 158.106 251.288 Z " fill="rgb(202,30,105)"/><path d=" M 158.106 260.666 C 158.106 261.636 157.32 262.422 156.35 262.422 C 155.381 262.422 154.595 261.636 154.595 260.666 C 154.595 259.696 155.381 258.91 156.35 258.91 C 157.32 258.91 158.106 259.696 158.106 260.666 Z " fill="rgb(202,30,105)"/><path d=" M 175.282 234.867 L 165.471 234.867 C 164.963 234.867 164.55 234.453 164.55 233.945 L 164.55 232.453 C 164.55 231.944 164.963 231.531 165.471 231.531 L 175.282 231.531 C 175.79 231.531 176.203 231.944 176.203 232.453 L 176.203 233.945 C 176.203 234.453 175.79 234.867 175.282 234.867 Z " fill="rgb(202,30,105)"/><path d=" M 181.848 277.988 L 165.916 277.988 C 164.962 277.988 164.188 277.214 164.188 276.26 C 164.188 275.305 164.962 274.532 165.916 274.532 L 181.848 274.532 C 182.802 274.532 183.576 275.305 183.576 276.26 C 183.576 277.214 182.802 277.988 181.848 277.988 Z " fill="rgb(162,22,83)"/><path d=" M 181.848 287.037 L 165.916 287.037 C 164.962 287.037 164.188 286.263 164.188 285.309 C 164.188 284.353 164.962 283.579 165.916 283.579 L 181.848 283.579 C 182.802 283.579 183.576 284.353 183.576 285.309 C 183.576 286.263 182.802 287.037 181.848 287.037 Z " fill="rgb(255,207,207)"/><path d=" M 265.95 277.988 L 219.739 277.988 C 218.785 277.988 218.01 277.214 218.01 276.26 C 218.01 275.305 218.785 274.532 219.739 274.532 L 265.95 274.532 C 266.905 274.532 267.678 275.305 267.678 276.26 C 267.678 277.214 266.905 277.988 265.95 277.988 Z " fill="rgb(255,207,207)"/><path d=" M 181.848 296.387 L 165.916 296.387 C 164.962 296.387 164.188 295.614 164.188 294.659 C 164.188 293.705 164.962 292.93 165.916 292.93 L 181.848 292.93 C 182.802 292.93 183.576 293.705 183.576 294.659 C 183.576 295.614 182.802 296.387 181.848 296.387 Z " fill="rgb(252,28,91)"/><path d=" M 254.926 287.037 L 238.994 287.037 C 238.04 287.037 237.266 286.263 237.266 285.309 C 237.266 284.354 238.04 283.579 238.994 283.579 L 254.926 283.579 C 255.881 283.579 256.655 284.354 256.655 285.309 C 256.655 286.263 255.881 287.037 254.926 287.037 Z " fill="rgb(252,28,91)"/><path d=" M 207.372 277.988 L 191.44 277.988 C 190.485 277.988 189.712 277.214 189.712 276.26 C 189.712 275.305 190.485 274.532 191.44 274.532 L 207.372 274.532 C 208.327 274.532 209.101 275.305 209.101 276.26 C 209.101 277.214 208.327 277.988 207.372 277.988 Z " fill="rgb(202,30,105)"/><path d=" M 227.9 287.037 L 191.44 287.037 C 190.485 287.037 189.712 286.263 189.712 285.309 C 189.712 284.353 190.485 283.579 191.44 283.579 L 227.9 283.579 C 228.854 283.579 229.628 284.353 229.628 285.309 C 229.628 286.263 228.854 287.037 227.9 287.037 Z " fill="rgb(162,22,83)"/><path d=" M 263.662 296.387 L 191.362 296.387 C 190.451 296.387 189.712 295.614 189.712 294.659 C 189.712 293.705 190.451 292.93 191.362 292.93 L 263.662 292.93 C 264.574 292.93 265.313 293.705 265.313 294.659 C 265.313 295.614 264.574 296.387 263.662 296.387 Z " fill="rgb(255,207,207)"/><path d=" M 227.141 302.973 L 191.44 302.973 C 190.485 302.973 189.712 302.2 189.712 301.245 C 189.712 300.291 190.485 299.517 191.44 299.517 L 227.141 299.517 C 228.095 299.517 228.869 300.291 228.869 301.245 C 228.869 302.2 228.095 302.973 227.141 302.973 Z " fill="rgb(255,207,207)"/><path d=" M 158.106 276.26 C 158.106 277.23 157.32 278.016 156.35 278.016 C 155.381 278.016 154.595 277.23 154.595 276.26 C 154.595 275.29 155.381 274.504 156.35 274.504 C 157.32 274.504 158.106 275.29 158.106 276.26 Z " fill="rgb(202,30,105)"/><path d=" M 158.106 267.601 C 158.106 268.571 157.32 269.357 156.35 269.357 C 155.381 269.357 154.595 268.571 154.595 267.601 C 154.595 266.631 155.381 265.845 156.35 265.845 C 157.32 265.845 158.106 266.631 158.106 267.601 Z " fill="rgb(202,30,105)"/><path d=" M 158.106 285.281 C 158.106 286.251 157.32 287.037 156.35 287.037 C 155.381 287.037 154.595 286.251 154.595 285.281 C 154.595 284.311 155.381 283.526 156.35 283.526 C 157.32 283.526 158.106 284.311 158.106 285.281 Z " fill="rgb(202,30,105)"/><path d=" M 158.106 294.659 C 158.106 295.629 157.32 296.415 156.35 296.415 C 155.381 296.415 154.595 295.629 154.595 294.659 C 154.595 293.689 155.381 292.903 156.35 292.903 C 157.32 292.903 158.106 293.689 158.106 294.659 Z " fill="rgb(202,30,105)"/><path d=" M 175.282 268.86 L 165.471 268.86 C 164.963 268.86 164.55 268.446 164.55 267.938 L 164.55 266.446 C 164.55 265.937 164.963 265.524 165.471 265.524 L 175.282 265.524 C 175.79 265.524 176.203 265.937 176.203 266.446 L 176.203 267.938 C 176.203 268.446 175.79 268.86 175.282 268.86 Z " fill="rgb(202,30,105)"/></g><g><path d=" M 207.037 396.515 C 213.423 405.68 213.811 417.549 215.947 428.513 C 216.334 430.495 216.954 432.703 218.732 433.666 C 219.957 434.329 221.436 434.221 222.829 434.16 C 231.601 433.782 243.186 435.89 250.331 441.221 C 254.362 444.228 256.96 448.352 252.004 451.342 C 244.557 455.832 234.958 457.099 226.442 457.597 C 210.158 458.553 193.874 456.302 177.716 454.054 C 176.554 453.893 175.314 453.694 174.457 452.892 C 173.6 452.089 173.321 450.858 173.106 449.702 C 171.211 439.493 171.021 428.968 172.548 418.696" fill="rgb(202,30,105)"/><path d=" M 85.885 316.111 C 78.626 342.108 68.91 368.189 80.51 394.734 C 87.699 411.18 103.345 424.471 121.243 425.842 C 113.21 419.244 104.874 412.247 100.916 402.636 C 97.012 393.151 97.927 382.429 99.491 372.293 C 100.954 362.828 102.942 353.389 106.453 344.479 C 113.402 326.851 125.954 312.103 135.609 295.8 C 153.906 264.905 153.501 224.932 128.506 197.756 C 119.206 187.644 107.743 179.761 95.914 172.776 C 96.464 175.569 96.03 178.545 94.706 181.064 C 84.423 173.689 75.364 164.611 68.01 154.313 C 65.019 164.868 64.743 176.181 67.218 186.868 C 63.423 185.093 59.989 182.549 57.186 179.435 C 53.234 191.501 57.659 204.778 64.121 215.708 C 70.58 226.639 79.09 236.368 84.417 247.893 C 94.163 268.981 92.134 293.737 85.885 316.111 Z " fill="rgb(252,28,91)"/><path d=" M 227.44 185.107 C 225.255 183.789 223.582 181.82 221.803 180.009 C 214.194 172.263 204.071 167.035 193.309 164.721 C 182.546 162.407 171.181 162.951 160.457 165.773 C 159.756 165.958 159.005 166.184 158.559 166.751 C 158.179 167.232 158.095 167.868 158.03 168.47 C 155.998 187.321 160.769 210.921 173.78 225.393 C 175.674 227.501 177.848 229.487 178.888 232.113" fill="rgb(162,22,83)"/><path d=" M 216.262 192.999 C 214.927 192.193 213.904 190.989 212.818 189.882 C 208.166 185.147 201.977 181.951 195.397 180.537 C 188.819 179.122 181.87 179.455 175.316 181.18 C 174.887 181.293 174.429 181.431 174.156 181.778 C 173.923 182.072 173.873 182.461 173.832 182.829 C 172.59 194.352 175.508 208.779 183.46 217.626 C 184.618 218.914 185.946 220.128 186.583 221.734" fill="rgb(255,207,207)"/><path d=" M 323.265 223.157 C 324.454 220.899 326.322 219.114 328.026 217.233 C 335.316 209.186 339.944 198.774 341.627 187.896 C 343.31 177.018 342.105 165.702 338.663 155.162 C 338.438 154.472 338.167 153.736 337.576 153.324 C 337.073 152.973 336.433 152.926 335.829 152.896 C 316.891 151.965 293.61 158.104 279.92 171.935 C 277.927 173.949 276.07 176.236 273.509 177.427" fill="rgb(162,22,83)"/><path d=" M 288.23 282.845 C 296.367 292.344 295.73 306.28 294.849 318.757 C 292.475 352.387 291.582 386.121 292.173 419.83 C 292.342 429.441 292.469 439.681 287.381 447.838 C 285.824 450.333 283.308 452.751 280.391 452.385 C 276.749 451.93 275.095 447.678 274.255 444.106 C 269.876 425.5 267.441 406.438 267.001 387.327 C 260.942 403.554 244.194 412.958 228.16 419.506 C 213.321 425.566 199.244 432.63 184.258 438.346 C 182.609 438.975 180.886 439.683 179.798 441.074 C 178.712 442.464 178.572 444.757 179.976 445.829 C 180.754 446.422 181.795 446.513 182.774 446.539 C 188.219 446.675 193.79 445.452 199.05 446.872 C 203.754 448.144 207.636 451.381 211.353 454.529 C 214.915 457.545 218.842 461.557 217.853 466.118 C 217.178 469.225 198.35 470.856 195.527 471.056 C 188.083 471.582 181.035 470.504 173.686 469.691 C 158.08 467.965 143.191 465.385 130.118 455.966 C 116.35 446.047 107.146 430.352 104.096 413.659 C 101.047 396.969 103.951 379.425 111.185 364.075 C 114.11 357.87 117.779 351.923 122.751 347.196 C 128.784 341.462 136.43 337.785 143.906 334.128 C 155.876 328.274 168.139 321.936 176.463 311.533 C 185.606 300.107 188.877 285.205 191.883 270.884" fill="rgb(223,47,118)"/><path d=" M 314.735 212.459 C 315.462 211.078 316.604 209.987 317.646 208.837 C 322.102 203.918 324.931 197.553 325.96 190.903 C 326.989 184.254 326.252 177.336 324.148 170.893 C 324.01 170.471 323.845 170.022 323.484 169.769 C 323.176 169.555 322.785 169.526 322.416 169.508 C 310.839 168.939 296.607 172.692 288.239 181.146 C 287.02 182.378 285.885 183.776 284.32 184.504" fill="rgb(255,207,207)"/><path d=" M 162.328 265.819 C 171.715 257.852 173.617 242.621 175.658 231.301 C 178.7 214.439 184.898 201.889 197.072 189.79 C 205.765 181.151 214.809 177.054 226.038 173.346 C 248.097 166.062 272.634 162.518 293.31 175.994 C 305.729 184.088 314.997 196.271 322.156 209.251 C 328.898 221.476 334.618 235.32 346.448 242.733 C 347.871 243.624 338.488 259.901 337.403 261.388 C 333.383 266.896 327.844 271.73 322.53 275.953 C 304.915 289.955 282.083 298.539 260.014 301.588 C 245.822 303.547 230.995 302.426 216.684 300.247 C 204.119 298.334 188.803 292.696 178.461 285.171 C 176.495 283.739 159.726 267.769 160.697 267.075 C 161.264 266.681 161.808 266.262 162.328 265.819 Z " fill="rgb(252,28,91)"/><path d=" M 57.186 179.435 C 59.989 182.549 63.423 185.093 67.218 186.868 C 64.743 176.181 65.019 164.868 68.01 154.313 C 75.364 164.611 84.423 173.689 94.706 181.064 C 96.032 178.545 96.464 175.569 95.914 172.776 C 107.743 179.761 119.206 187.644 128.506 197.756 C 138.418 208.533 144.449 221.325 146.994 234.762 L 146.991 234.813 C 142.343 232.545 137.696 230.277 133.048 228.009 C 133.044 235.261 131.539 242.509 128.651 249.162 C 124.757 246.341 121.15 243.12 117.911 239.564 C 116.935 245.214 114.203 250.547 110.19 254.642 C 106.451 251.605 103.133 248.051 100.364 244.112 C 97.812 247.263 95.261 250.415 92.711 253.566 C 91.886 254.583 91.012 255.639 89.803 256.14 C 89.07 256.445 88.353 256.513 87.66 256.408 C 86.769 253.517 85.701 250.672 84.417 247.893 C 79.09 236.368 70.58 226.639 64.121 215.708 C 57.659 204.778 53.234 191.501 57.186 179.435 Z " fill="rgb(255,207,207)"/><path d=" M 239.133 334.669 C 232.942 354.445 234.553 375.403 235.449 395.784 C 236.237 413.717 239.008 436.657 229.629 452.747 C 220.803 467.889 215.8 448.811 214.66 440.912 C 209.374 404.264 204.074 367.274 206.727 330.343" fill="rgb(223,47,118)"/><path d=" M 284.842 286.394 C 290.261 296.556 292.993 308.137 292.688 319.649 C 290.07 319.64 287.461 318.776 285.356 317.219 C 287.68 328.281 288.007 339.76 286.315 350.937 C 286.073 352.534 285.731 354.242 284.562 355.359 C 282.847 356.993 279.932 356.662 278.018 355.266 C 276.104 353.869 274.952 351.684 273.865 349.578 C 274.671 361.817 271.895 374.27 265.967 385.006 C 257.973 399.483 254.94 366.21 254.26 362.648 C 252.332 367.853 244.572 368.651 240.2 365.231 C 235.829 361.811 234.263 355.918 233.749 350.387 C 233.192 344.398 233.559 338.337 234.819 332.456 C 234.157 336.259 231.336 339.806 227.088 339.165 C 223.83 338.674 221.24 336.015 219.871 333.02 C 218.801 330.678 218.337 328.109 217.999 325.557 C 217.039 318.285 217.035 310.886 217.993 303.613 C 218.657 298.567 219.783 293.543 219.657 288.457 C 219.531 283.368 217.955 278.041 214.113 274.702" fill="rgb(255,207,207)"/><path d=" M 274.255 444.106 C 271.88 434.017 270.098 423.792 268.875 413.5 C 269.649 411.424 270.423 409.349 271.197 407.273 C 273.234 408.963 275.27 410.653 277.306 412.344 C 278.55 409.259 280.106 406.302 281.943 403.529 C 283.979 406.25 286.248 408.797 288.715 411.134 C 289.817 409.612 290.919 408.09 292.021 406.567 C 292.047 410.989 292.096 415.409 292.173 419.83 C 292.342 429.441 292.469 439.681 287.381 447.838 C 285.824 450.331 283.308 452.751 280.391 452.385 C 276.749 451.93 275.095 447.678 274.255 444.106 Z " fill="rgb(162,22,83)"/><path d=" M 178.04 442.828 C 177.911 442.703 178.944 441.719 180.209 439.559 C 181.505 437.424 182.819 434.019 183.627 429.595 C 184.417 425.175 185.023 419.775 185.425 413.819 C 185.801 407.854 185.855 401.269 185.124 394.431 C 184.399 387.596 182.937 381.185 180.897 375.604 C 178.868 370.015 176.355 365.251 173.875 361.499 C 168.872 353.984 164.334 350.483 164.601 350.204 C 164.665 350.121 165.879 350.874 167.797 352.584 C 169.716 354.282 172.337 356.961 175.033 360.702 C 177.723 364.441 180.437 369.266 182.614 374.966 C 184.803 380.658 186.362 387.24 187.102 394.221 C 187.848 401.208 187.733 407.911 187.253 413.95 C 186.74 419.993 185.995 425.372 185.004 429.884 C 183.998 434.388 182.412 437.892 180.858 439.982 C 179.332 442.101 178.098 442.902 178.04 442.828 Z " fill="rgb(164,22,84)"/><path d=" M 235.222 432.623 C 235.154 432.615 235.211 431.447 235.373 429.341 C 235.546 427.236 235.765 424.188 235.994 420.422 C 236.457 412.892 236.801 402.468 236.444 390.961 C 236.074 379.457 235.073 369.074 234.135 361.587 C 233.669 357.843 233.258 354.816 232.953 352.728 C 232.658 350.636 232.527 349.473 232.595 349.46 C 232.662 349.448 232.922 350.589 233.335 352.663 C 233.758 354.735 234.276 357.752 234.832 361.494 C 235.95 368.974 237.066 379.384 237.438 390.93 C 237.796 402.477 237.339 412.937 236.695 420.472 C 236.376 424.241 236.05 427.285 235.758 429.38 C 235.477 431.477 235.29 432.631 235.222 432.623 Z " fill="rgb(169,25,87)"/><path d=" M 160.697 267.075 C 161.264 266.681 161.808 266.262 162.328 265.819 C 163.325 264.973 164.221 264.03 165.06 263.032 C 172.887 263.372 180.376 265.435 188.126 266.756 C 197.152 268.296 206.711 266.077 214.952 262.417 C 221.242 259.623 225.321 255.456 230.672 251.564 C 237.323 246.728 243.97 241.66 252.366 240.519 C 260.397 239.428 270.418 239.631 277.186 244.519 C 279.591 246.256 281.67 248.435 284.193 249.997 C 287.777 252.214 292.053 253.054 296.26 253.301 C 310.272 254.124 323.815 248.867 337.489 245.704 C 340.302 245.054 343.338 244.557 346.216 244.71 C 344.597 249.289 338.281 260.184 337.403 261.388 C 333.383 266.896 327.844 271.73 322.53 275.953 C 304.915 289.955 282.083 298.539 260.014 301.588 C 245.822 303.547 230.995 302.426 216.684 300.247 C 204.119 298.334 188.803 292.696 178.461 285.171 C 176.495 283.739 159.726 267.769 160.697 267.075 Z " fill="rgb(255,207,207)"/><path d=" M 284.831 245.321 C 276.504 245.321 276.504 232.409 284.831 232.409 C 293.157 232.409 293.157 245.321 284.831 245.321 Z " fill="rgb(131,41,86)"/><path d=" M 229.819 249.137 L 229.574 249.229 C 228.022 249.81 225.981 249.387 224.599 248.578 C 223.156 247.732 222.076 246.333 221.632 244.719 C 221.174 243.053 221.41 241.236 222.283 239.745 C 223.191 238.195 224.509 237.39 226.142 236.778 L 226.387 236.686 C 227.939 236.105 229.98 236.528 231.361 237.337 C 232.805 238.182 233.884 239.581 234.328 241.195 C 234.787 242.861 234.551 244.679 233.678 246.17 C 232.77 247.719 231.452 248.525 229.819 249.137 Z " fill="rgb(136,42,86)"/><path d=" M 258.815 253.097 C 259.096 257.09 259.378 261.084 259.659 265.075 C 259.737 266.185 258.015 266.177 257.937 265.075 C 257.656 261.084 257.375 257.09 257.094 253.097 C 257.015 251.989 258.738 251.996 258.815 253.097 Z " fill="rgb(83,54,88)"/><path d=" M 269.102 258.676 C 265.361 267.565 253.777 268.628 248.689 260.299 C 248.108 259.349 249.598 258.485 250.175 259.431 C 254.4 266.344 264.243 265.819 267.442 258.219 C 267.866 257.212 269.532 257.655 269.102 258.676 Z " fill="rgb(83,54,88)"/><path d=" M 242.71 247.757 C 239.491 241.851 248.212 239.165 252.511 237.964 C 257.583 236.548 263.893 236.028 268.262 239.559 C 273.942 244.153 265.306 254.181 261.364 256.768 C 259.542 257.965 257.218 258.574 255.144 257.904 C 249.983 256.232 245.308 252.523 242.71 247.757 Z " fill="rgb(185,94,136)"/><path d=" M 216.664 417.488 C 217.836 418.716 218.802 420.137 219.511 421.68 C 220.785 420.27 222.059 418.859 223.334 417.45 C 223.737 417.004 224.182 416.532 224.771 416.414 C 225.854 416.194 226.776 417.26 227.147 418.301 C 227.518 419.343 227.645 420.526 228.385 421.349 C 229.609 422.705 231.976 422.318 233.281 421.037 C 234.585 419.757 235.101 417.896 235.565 416.127 C 235.864 416.493 236.131 416.884 236.422 417.257 C 236.616 429.83 235.521 442.64 229.629 452.747 C 220.803 467.889 215.8 448.811 214.66 440.912 C 213.877 435.483 213.097 430.047 212.339 424.603 C 213.78 422.232 215.223 419.861 216.664 417.488 Z " fill="rgb(162,22,83)"/><path d=" M 171.295 469.416 C 171.346 468.461 171.589 467.524 172.068 466.656 C 173.674 463.747 177.182 462.555 180.397 461.715 C 179.139 459.338 177.882 456.959 176.624 454.581 C 180.584 453.161 184.778 452.398 188.983 452.331 C 187.434 450.7 186.176 448.795 185.285 446.73 L 185.201 446.517 C 189.864 446.365 194.569 445.662 199.05 446.872 C 203.754 448.144 207.636 451.381 211.353 454.529 C 214.915 457.545 218.842 461.557 217.853 466.118 C 217.178 469.225 198.35 470.856 195.527 471.056 C 188.083 471.582 181.035 470.504 173.686 469.691 C 172.887 469.603 172.091 469.51 171.295 469.416 Z " fill="rgb(162,22,83)"/><path d=" M 203.465 323.691 C 203.499 323.691 203.537 324.066 203.58 324.781 L 203.718 327.907 C 203.861 331.662 204.004 335.465 204.155 339.405 C 204.555 349.109 205.299 362.509 206.628 377.267 C 207.967 392.025 209.638 405.341 210.986 414.96 C 211.545 418.862 212.084 422.63 212.617 426.349 L 213.042 429.45 C 213.129 430.16 213.158 430.536 213.124 430.543 C 213.09 430.549 212.995 430.183 212.844 429.484 L 212.235 426.412 C 211.721 423.743 211.052 419.864 210.29 415.063 C 208.763 405.461 206.978 392.138 205.637 377.357 C 204.306 362.575 203.673 349.148 203.452 339.428 C 203.339 334.567 203.304 330.633 203.331 327.914 L 203.379 324.783 C 203.402 324.068 203.429 323.691 203.465 323.691 Z " fill="rgb(176,27,91)"/><path d=" M 174.563 274.545 C 195.39 288.972 224.14 281.099 237.067 260.25 C 248.97 241.055 241.613 216.438 223.99 203.852 C 214.826 197.308 203.458 195.648 192.499 196.773 C 177.372 198.326 166.338 204.913 159.441 218.582 C 150.286 238.998 156.024 261.701 174.563 274.545 Z  M 286.019 258.7 C 306.846 273.129 335.596 265.254 348.523 244.405 C 360.426 225.211 353.069 200.593 335.446 188.009 C 326.282 181.463 314.914 179.803 303.955 180.928 C 288.828 182.481 277.794 189.069 270.897 202.737 C 261.742 223.156 267.48 245.857 286.019 258.7 Z  M 154.685 216.84 C 161.368 203.593 170.101 196.606 184.505 193.017 C 196.609 190.001 210.282 190.679 221.446 196.522 C 229.714 200.852 236.247 207.143 240.727 214.526 C 242.409 210.916 245.047 207.783 248.973 206.526 C 254.066 204.894 259.173 206.282 263.229 209.372 C 263.955 206.529 264.917 203.724 266.141 200.996 C 272.824 187.749 281.557 180.763 295.961 177.172 C 308.065 174.157 321.738 174.834 332.902 180.679 C 355.528 192.523 365.219 219.026 355.145 242.543 C 343.981 268.609 311.763 277.663 287.38 265.347 C 268.293 255.705 259.349 235.044 262.103 215.105 L 261.854 214.886 C 258.982 211.835 255.221 210.319 251.059 211.137 C 246.771 211.978 244.833 216.881 243.897 220.715 C 248.804 232.32 249.09 245.781 243.689 258.387 C 232.525 284.453 200.307 293.507 175.925 281.19 C 152.242 269.228 144.163 240.303 154.685 216.84 Z " fill="rgb(247,178,64)"/></g></g><g/><path d=" M 474.631 76.96 C 474.631 77.341 474.322 77.65 473.94 77.65 C 473.56 77.65 473.251 77.341 473.251 76.96 C 473.251 76.579 473.56 76.27 473.94 76.27 C 474.322 76.27 474.631 76.579 474.631 76.96 Z " fill="rgb(216,217,217)"/><path d=" M 472.621 39.78 C 472.621 40.096 472.364 40.353 472.047 40.353 C 471.731 40.353 471.474 40.096 471.474 39.78 C 471.474 39.463 471.731 39.207 472.047 39.207 C 472.364 39.207 472.621 39.463 472.621 39.78 Z " fill="rgb(216,217,217)"/></g></svg>