<?xml version="1.0" encoding="UTF-8" standalone="no"?><!-- Generator: Gravit.io --><svg xmlns="http://www.w3.org/2000/svg" xmlns:xlink="http://www.w3.org/1999/xlink" style="isolation:isolate" viewBox="0 0 500 500" width="500pt" height="500pt"><defs><clipPath id="_clipPath_Kx7cGerdB3izPgRLAFfeVH6884x8AN8O"><rect width="500" height="500"/></clipPath></defs><g clip-path="url(#_clipPath_Kx7cGerdB3izPgRLAFfeVH6884x8AN8O)"><path d=" M 297.429 176.659 C 300.97 174.657 303.786 171.468 306.75 168.566 C 319.429 156.148 335.728 148.395 352.686 145.749 C 369.646 143.103 387.221 145.467 403.541 151.682 C 404.609 152.091 405.748 152.577 406.375 153.609 C 406.91 154.488 406.969 155.596 407.001 156.645 C 408.031 189.439 397.968 229.578 376.15 252.929 C 372.972 256.328 369.375 259.484 367.465 263.889" fill="rgb(162,22,83)"/><path d=" M 313.883 191.682 C 316.048 190.46 317.77 188.511 319.582 186.734 C 327.332 179.145 337.296 174.406 347.662 172.789 C 358.028 171.171 368.773 172.616 378.748 176.416 C 379.402 176.664 380.099 176.961 380.481 177.592 C 380.81 178.132 380.846 178.808 380.864 179.447 C 381.495 199.496 375.342 224.032 362.004 238.307 C 360.063 240.385 357.864 242.314 356.696 245.006" fill="rgb(255,207,207)"/><path d=" M 140.798 224.866 C 139.208 220.82 136.51 217.505 134.079 214.043 C 123.674 199.238 117.666 180.687 116.281 161.697 C 114.896 142.707 118.042 123.325 124.57 105.564 C 124.998 104.401 125.499 103.164 126.463 102.528 C 127.283 101.983 128.281 101.983 129.224 102.008 C 158.713 102.774 194.143 116.291 213.826 141.883 C 216.692 145.609 219.314 149.789 223.153 152.167" fill="rgb(162,22,83)"/><path d=" M 155.238 207.468 C 154.265 204.994 152.618 202.969 151.13 200.852 C 144.772 191.801 141.099 180.461 140.251 168.852 C 139.404 157.246 141.329 145.396 145.318 134.538 C 145.58 133.828 145.888 133.073 146.476 132.683 C 146.977 132.351 147.588 132.351 148.164 132.366 C 166.19 132.835 187.848 141.098 199.88 156.742 C 201.632 159.02 203.236 161.575 205.583 163.028" fill="rgb(255,207,207)"/><path d=" M 389.36 324.148 C 375.695 309.217 374.46 282.686 372.567 262.891 C 369.748 233.402 361.546 210.96 344.021 188.552 C 331.509 172.548 317.937 164.341 300.931 156.534 C 267.524 141.194 229.851 131.998 196.253 152.668 C 176.071 165.081 160.317 184.95 147.747 206.459 C 135.907 226.716 125.469 249.895 106.279 261.208 C 103.971 262.569 116.696 291.839 118.211 294.543 C 123.827 304.558 131.876 313.596 139.645 321.553 C 165.4 347.931 199.859 365.61 233.759 373.64 C 255.558 378.803 278.69 378.727 301.141 376.76 C 320.851 375.034 345.254 367.222 362.148 355.527 C 365.36 353.304 393.179 327.839 391.75 326.521 C 390.914 325.768 390.119 324.974 389.36 324.148 Z " fill="rgb(252,28,91)"/><path d=" M 391.75 326.521 C 390.914 325.768 390.119 324.974 389.36 324.148 C 387.909 322.561 386.624 320.82 385.437 318.995 C 373.252 318.6 361.4 321.221 349.227 322.531 C 335.047 324.057 320.466 319.026 308.09 311.675 C 298.648 306.063 292.788 298.358 284.923 290.97 C 275.149 281.789 265.407 272.205 252.507 269.184 C 240.17 266.295 224.598 265.387 213.545 272.976 C 209.618 275.673 206.148 279.173 202.056 281.553 C 196.246 284.932 189.516 285.844 182.961 285.746 C 161.128 285.408 140.707 274.634 119.844 267.461 C 115.554 265.985 110.899 264.748 106.418 264.65 C 108.414 272.758 116.985 292.356 118.211 294.543 C 123.827 304.558 131.876 313.596 139.645 321.553 C 165.402 347.931 199.859 365.61 233.759 373.64 C 255.558 378.803 278.69 378.727 301.141 376.76 C 320.851 375.034 345.254 367.222 362.148 355.527 C 365.36 353.304 393.179 327.839 391.75 326.521 Z " fill="rgb(255,207,207)"/><path d=" M 202.322 272.406 C 214.085 272.406 214.085 252.111 202.322 252.111 C 190.559 252.111 190.559 272.406 202.322 272.406 Z " fill="rgb(79,50,85)"/><path d=" M 285.283 285.117 L 285.653 285.307 C 287.967 286.491 290.136 287.109 292.681 286.329 C 294.96 285.632 296.937 283.936 298.131 281.667 C 299.364 279.323 299.698 276.466 299.049 273.848 C 298.475 271.521 296.905 268.832 294.859 267.785 L 294.488 267.595 C 292.175 266.411 290.006 265.793 287.462 266.573 C 285.181 267.27 283.206 268.966 282.009 271.235 C 280.777 273.579 280.444 276.436 281.091 279.054 C 281.665 281.381 283.237 284.07 285.283 285.117 Z " fill="rgb(79,50,85)"/><path d=" M 241.384 289.877 C 240.498 296.736 239.612 303.592 238.726 310.451 C 238.532 311.956 240.598 312.603 240.794 311.085 C 241.681 304.228 242.567 297.37 243.455 290.513 C 243.649 289.008 241.58 288.359 241.384 289.877 Z " fill="rgb(79,50,85)"/><path d=" M 224.773 298.454 C 229.471 314.169 247.192 316.945 255.806 303.549 C 256.613 302.294 254.751 301.103 253.954 302.345 C 246.399 314.093 230.911 311.422 226.842 297.821 C 226.407 296.368 224.336 296.989 224.773 298.454 Z " fill="rgb(79,50,85)"/><path d=" M 266.676 282.889 C 272.336 273.098 259.108 267.367 252.571 264.756 C 244.861 261.676 235.13 259.986 227.954 265.534 C 218.622 272.753 230.89 291.144 236.714 296.105 C 239.407 298.399 242.945 299.742 246.237 298.845 C 254.435 296.607 262.108 290.79 266.676 282.889 Z " fill="rgb(185,94,136)"/><path d=" M 313.612 314.717 C 311.73 313.761 309.887 312.742 308.09 311.675 C 299.238 306.413 293.536 299.314 286.377 292.358 C 286.409 292.358 286.443 292.358 286.475 292.358 C 287.425 292.358 288.373 292.424 289.314 292.551 C 294.16 293.203 298.837 295.456 302.754 298.503 C 305.866 300.923 308.837 303.686 310.949 307.196 C 312.302 309.45 313.275 312.048 313.612 314.717 Z " fill="rgb(195,96,174)"/><path d=" M 297.324 331.874 C 292.54 331.874 287.758 330.226 283.319 328.112 C 277.706 325.438 272.759 321.958 269.873 315.698 C 265.414 306.02 271.928 296.133 280.392 293.329 C 282.367 292.673 284.377 292.369 286.377 292.358 C 293.536 299.314 299.238 306.413 308.09 311.675 C 309.887 312.742 311.73 313.761 313.612 314.717 C 313.801 316.21 313.79 317.723 313.537 319.211 C 312.421 325.77 306.723 330.487 300.801 331.567 C 299.646 331.777 298.484 331.874 297.324 331.874 Z " fill="rgb(255,138,171)"/><path d=" M 183.909 285.751 C 183.592 285.751 183.278 285.748 182.961 285.746 C 174.091 285.609 165.454 283.748 156.926 281.107 C 158.603 276.611 162.379 272.994 166.593 271.339 C 169.173 270.327 171.872 269.919 174.602 269.919 C 177.864 269.919 181.168 270.5 184.349 271.321 C 190.3 272.857 195.717 275.315 199.547 280.915 C 199.885 281.406 200.188 281.906 200.454 282.412 C 195.316 284.947 189.566 285.751 183.909 285.751 Z " fill="rgb(195,96,174)"/><path d=" M 182.647 307.546 C 178.238 307.544 173.811 306.289 169.895 304.271 C 166.45 302.497 163.087 300.355 160.456 297.314 C 157.822 294.27 155.967 290.217 156.008 285.991 C 156.024 284.291 156.352 282.648 156.926 281.107 C 165.454 283.748 174.091 285.609 182.961 285.746 C 183.278 285.748 183.592 285.751 183.909 285.751 C 189.566 285.751 195.316 284.947 200.454 282.412 C 204.906 290.8 200.167 300.827 192.726 304.991 C 189.981 306.53 187.039 307.316 184.066 307.501 C 183.594 307.531 183.12 307.546 182.647 307.546 Z " fill="rgb(255,138,171)"/><path d=" M 343.828 338.437 C 315.477 355.432 280.274 339.839 266.896 308.503 C 254.577 279.653 267.356 246.216 291.399 231.305 C 303.903 223.551 318.498 223.009 332.181 226.317 C 351.071 230.882 364.076 241.877 370.854 262.172 C 379.527 292.306 369.065 323.308 343.828 338.437 Z  M 205.278 298.615 C 176.926 315.613 141.724 300.017 128.345 268.681 C 116.026 239.831 128.806 206.394 152.849 191.485 C 165.352 183.729 179.947 183.187 193.631 186.495 C 212.521 191.06 225.526 202.055 232.304 222.35 C 240.977 252.487 230.515 283.486 205.278 298.615 Z  M 377.108 260.474 C 370.542 240.805 360.499 229.609 342.812 222.297 C 327.948 216.153 310.58 214.951 295.651 221.404 C 284.594 226.187 275.451 233.999 268.746 243.669 C 267.133 238.331 264.244 233.513 259.461 231.127 C 253.26 228.033 246.612 229.178 241.05 232.881 C 240.535 228.773 239.717 224.679 238.558 220.652 C 231.991 200.983 221.949 189.79 204.262 182.475 C 189.398 176.331 172.03 175.129 157.1 181.585 C 126.842 194.666 110.848 230.385 120.244 265.021 C 130.656 303.411 170.073 321.209 202.617 307.743 C 228.093 297.198 242.317 269.571 241.661 241.117 L 242.007 240.848 C 246.067 237.013 251.032 235.474 256.174 237.279 C 261.471 239.137 263.225 246.333 263.865 251.869 C 256.023 267.403 253.756 286.277 258.794 304.843 C 269.206 343.233 308.623 361.031 341.167 347.562 C 372.777 334.481 387.078 295.105 377.108 260.474 Z " fill="rgb(255,157,0)"/><path d=" M 102.097 96.957 L 82.474 101.826 L 62.852 106.695 L 68.446 87.266 L 74.041 67.838 L 88.069 82.397 L 102.097 96.957 Z " fill="rgb(255,157,0)"/><path d=" M 82.53 327.948 L 62.852 323.309 L 43.173 318.671 L 57.03 303.948 L 70.886 289.226 L 76.708 308.587 L 82.53 327.948 Z " fill="rgb(255,157,0)"/><path d=" M 471.431 122.711 L 452.437 129.636 L 433.442 136.562 L 436.942 116.649 L 440.441 96.737 L 455.936 109.724 L 471.431 122.711 Z " fill="rgb(255,157,0)"/><path d=" M 425.417 443.937 L 405.739 439.298 L 386.06 434.659 L 399.917 419.937 L 413.773 405.214 L 419.595 424.575 L 425.417 443.937 Z " fill="rgb(255,157,0)"/><path d=" M 160.995 427.404 L 145.704 414.177 L 130.413 400.951 L 149.513 394.322 L 168.613 387.693 L 164.804 407.548 L 160.995 427.404 Z " fill="rgb(255,157,0)"/><path d=" M 187.622 88.235 L 183.408 77.232 C 183.041 76.273 181.933 75.299 180.935 75.058 L 169.482 72.292 C 168.484 72.051 168.322 71.331 169.12 70.686 L 178.282 63.278 C 179.08 62.632 179.664 61.277 179.585 60.253 L 178.677 48.506 C 178.598 47.483 179.232 47.106 180.093 47.666 L 189.969 54.09 C 190.83 54.65 192.299 54.787 193.248 54.395 L 204.14 49.901 C 205.089 49.509 205.643 49.997 205.377 50.988 L 202.319 62.366 C 202.052 63.358 202.376 64.798 203.042 65.579 L 210.682 74.549 C 211.348 75.331 211.056 76.008 210.03 76.061 L 198.264 76.669 C 197.238 76.722 195.969 77.475 195.432 78.35 L 189.262 88.387 C 188.724 89.262 187.99 89.194 187.622 88.235 Z " fill="rgb(255,157,0)"/><path d=" M 372.081 106.033 L 367.867 95.031 C 367.499 94.072 366.391 93.098 365.393 92.857 L 353.94 90.09 C 352.942 89.849 352.78 89.13 353.578 88.484 L 362.74 81.076 C 363.539 80.431 364.123 79.075 364.044 78.052 L 363.135 66.305 C 363.056 65.281 363.69 64.904 364.551 65.464 L 374.428 71.889 C 375.288 72.449 376.758 72.585 377.707 72.194 L 388.598 67.7 C 389.547 67.308 390.102 67.795 389.835 68.787 L 386.777 80.165 C 386.511 81.156 386.835 82.596 387.501 83.378 L 395.14 92.347 C 395.806 93.129 395.514 93.807 394.489 93.86 L 382.722 94.467 C 381.697 94.52 380.428 95.274 379.89 96.148 L 373.72 106.186 C 373.183 107.06 372.448 106.992 372.081 106.033 Z " fill="rgb(255,157,0)"/><path d=" M 441.882 312.565 L 432.319 305.682 C 431.486 305.082 430.024 304.876 429.058 305.223 L 417.967 309.198 C 417 309.544 416.469 309.032 416.782 308.054 L 420.374 296.832 C 420.687 295.855 420.431 294.401 419.803 293.589 L 412.594 284.269 C 411.966 283.457 412.29 282.794 413.317 282.789 L 425.099 282.737 C 426.125 282.732 427.428 282.04 428.007 281.192 L 434.643 271.456 C 435.221 270.608 435.952 270.711 436.274 271.686 L 439.964 282.875 C 440.286 283.85 441.347 284.875 442.333 285.163 L 453.642 288.467 C 454.628 288.754 454.756 289.481 453.928 290.088 L 444.427 297.056 C 443.599 297.663 442.951 298.989 442.982 300.015 L 443.336 311.792 C 443.366 312.818 442.715 313.165 441.882 312.565 Z " fill="rgb(255,157,0)"/><path d=" M 275.954 471.779 L 271.74 460.776 C 271.372 459.818 270.264 458.843 269.266 458.602 L 257.813 455.836 C 256.815 455.595 256.653 454.875 257.451 454.23 L 266.613 446.822 C 267.412 446.176 267.996 444.821 267.916 443.798 L 267.008 432.051 C 266.929 431.027 267.563 430.65 268.424 431.21 L 278.301 437.634 C 279.161 438.194 280.631 438.331 281.58 437.939 L 292.471 433.445 C 293.42 433.054 293.974 433.541 293.708 434.532 L 290.65 445.911 C 290.384 446.902 290.708 448.342 291.373 449.124 L 299.013 458.093 C 299.679 458.875 299.387 459.552 298.361 459.605 L 286.595 460.213 C 285.57 460.266 284.301 461.019 283.763 461.894 L 277.593 471.932 C 277.056 472.806 276.321 472.738 275.954 471.779 Z " fill="rgb(255,157,0)"/><path d=" M 36.638 260.053 L 38 248.35 C 38.119 247.33 37.587 245.953 36.815 245.277 L 27.946 237.52 C 27.173 236.845 27.363 236.132 28.37 235.929 L 39.921 233.608 C 40.927 233.406 42.073 232.475 42.477 231.531 L 47.113 220.7 C 47.517 219.756 48.254 219.716 48.757 220.611 L 54.534 230.88 C 55.038 231.774 56.277 232.576 57.299 232.669 L 69.033 233.731 C 70.056 233.824 70.322 234.512 69.626 235.267 L 61.645 243.935 C 60.95 244.69 60.57 246.116 60.798 247.117 L 63.414 258.605 C 63.642 259.607 63.069 260.072 62.136 259.644 L 51.426 254.732 C 50.493 254.304 49.02 254.384 48.138 254.91 L 38.02 260.947 C 37.139 261.474 36.519 261.073 36.638 260.053 Z " fill="rgb(255,157,0)"/><path d=" M 440.647 208.57 L 451.346 202.367 C 453.39 201.182 454.697 198.333 454.262 196.01 L 452.171 184.85 C 451.736 182.527 452.448 182.237 453.76 184.203 L 460.27 193.954 C 461.583 195.92 464.542 197.208 466.875 196.828 L 479.431 194.785 C 481.764 194.406 481.998 195.06 479.953 196.246 L 469.254 202.448 C 467.209 203.634 465.902 206.482 466.338 208.806 L 468.429 219.965 C 468.864 222.288 468.152 222.578 466.84 220.613 L 460.329 210.861 C 459.017 208.895 456.057 207.607 453.724 207.987 L 441.169 210.03 C 438.836 210.41 438.602 209.755 440.647 208.57 Z " fill="rgb(253,81,130)"/><path d=" M 287.77 66.56 L 298.469 60.357 C 300.514 59.172 301.821 56.323 301.385 54 L 299.294 42.841 C 298.859 40.517 299.571 40.227 300.883 42.193 L 307.394 51.945 C 308.706 53.91 311.666 55.198 313.999 54.819 L 326.554 52.776 C 328.887 52.396 329.121 53.05 327.076 54.236 L 316.377 60.438 C 314.333 61.624 313.026 64.472 313.461 66.796 L 315.552 77.955 C 315.987 80.278 315.275 80.569 313.963 78.603 L 307.453 68.851 C 306.14 66.885 303.181 65.598 300.848 65.977 L 288.292 68.02 C 285.959 68.4 285.725 67.746 287.77 66.56 Z " fill="rgb(253,81,130)"/><path d=" M 343.329 419.688 L 348.431 409.406 C 349.493 407.265 348.978 404.161 347.282 402.478 L 338.829 394.09 C 337.132 392.407 337.537 391.808 339.731 392.753 L 351.137 397.668 C 353.332 398.614 356.573 398.104 358.372 396.53 L 367.402 388.627 C 369.2 387.054 369.798 387.514 368.736 389.655 L 363.633 399.937 C 362.571 402.077 363.086 405.182 364.782 406.865 L 373.236 415.253 C 374.932 416.936 374.527 417.535 372.333 416.589 L 360.927 411.675 C 358.732 410.729 355.491 411.239 353.693 412.813 L 344.662 420.715 C 342.864 422.289 342.266 421.829 343.329 419.688 Z " fill="rgb(253,81,130)"/><path d=" M 30.251 372.551 L 40.95 366.348 C 42.995 365.162 44.301 362.314 43.866 359.991 L 41.775 348.831 C 41.34 346.508 42.052 346.218 43.364 348.183 L 49.875 357.935 C 51.187 359.901 54.146 361.189 56.479 360.809 L 69.035 358.766 C 71.368 358.386 71.602 359.041 69.557 360.226 L 58.858 366.429 C 56.813 367.614 55.507 370.463 55.942 372.786 L 58.033 383.946 C 58.468 386.269 57.756 386.559 56.444 384.593 L 49.933 374.842 C 48.621 372.876 45.661 371.588 43.328 371.968 L 30.773 374.011 C 28.44 374.39 28.206 373.736 30.251 372.551 Z " fill="rgb(253,81,130)"/><path d=" M 45.001 166.896 L 57.684 166.009 C 60.053 165.843 62.6 163.885 63.369 161.638 L 67.064 150.845 C 67.833 148.598 68.612 148.696 68.802 151.063 L 69.708 162.304 C 69.898 164.671 71.901 167.142 74.178 167.819 L 86.248 171.406 C 88.524 172.083 88.449 172.767 86.08 172.933 L 73.397 173.82 C 71.028 173.985 68.48 175.944 67.711 178.191 L 64.017 188.983 C 63.248 191.23 62.469 191.132 62.278 188.765 L 61.373 177.525 C 61.182 175.157 59.179 172.686 56.903 172.01 L 44.833 168.422 C 42.556 167.746 42.632 167.062 45.001 166.896 Z " fill="rgb(253,81,130)"/></g></svg>