<?xml version="1.0" encoding="UTF-8" standalone="no"?><!-- Generator: Gravit.io --><svg xmlns="http://www.w3.org/2000/svg" xmlns:xlink="http://www.w3.org/1999/xlink" style="isolation:isolate" viewBox="0 0 500 500" width="500pt" height="500pt"><defs><clipPath id="_clipPath_X57fkxeWQsnKV6QTTtrod1l1ZGGTVbwh"><rect width="500" height="500"/></clipPath></defs><g clip-path="url(#_clipPath_X57fkxeWQsnKV6QTTtrod1l1ZGGTVbwh)"><path d=" M 415.825 417.385 L 304.535 389.491 C 293.293 386.673 277.106 390.607 268.411 398.271 L 182.341 474.136 C 173.646 481.799 165.942 478.634 165.148 467.071 L 157.287 352.608 C 156.492 341.045 147.749 326.867 137.773 320.966 L 39.025 262.551 C 29.049 256.65 29.679 248.345 40.431 244.017 L 146.862 201.169 C 157.614 196.841 168.396 184.144 170.926 172.833 L 195.966 60.867 C 198.496 49.556 206.589 47.589 214.028 56.476 L 287.668 144.458 C 295.107 153.345 310.514 159.677 322.053 158.587 L 436.277 147.803 C 447.816 146.713 452.188 153.802 446.034 163.624 L 385.115 260.847 C 378.961 270.668 377.701 287.278 382.303 297.916 L 427.857 403.217 C 432.459 413.854 427.067 420.203 415.825 417.385 Z " fill="rgb(255,157,0)"/></g></svg>